<?xml version="1.0" standalone="no"?><!DOCTYPE svg PUBLIC "-//W3C//DTD SVG 1.1//EN" "http://www.w3.org/Graphics/SVG/1.1/DTD/svg11.dtd"><svg t="1693470298821" class="icon" viewBox="0 0 1024 1024" version="1.1" xmlns="http://www.w3.org/2000/svg" p-id="1413" xmlns:xlink="http://www.w3.org/1999/xlink" width="200" height="200"><path d="M517.37 505.65m-338.65 0a338.65 338.65 0 1 0 677.3 0 338.65 338.65 0 1 0-677.3 0Z" fill="#468EF7" p-id="1414"></path><path d="M711.73 355.49a14.85 14.85 0 0 0-20.63-0.38L440.49 588 349 518.72a20 20 0 0 0-26.15 1.81 20 20 0 0 0-1.12 27l76.18 90a65.67 65.67 0 0 0 100.95-0.82l213.9-261.32a14.88 14.88 0 0 0-1.03-19.9z" fill="#FFFFFF" p-id="1415"></path></svg>