<?xml version="1.0" standalone="no"?><!DOCTYPE svg PUBLIC "-//W3C//DTD SVG 1.1//EN" "http://www.w3.org/Graphics/SVG/1.1/DTD/svg11.dtd"><svg t="1693470222296" class="icon" viewBox="0 0 1024 1024" version="1.1" xmlns="http://www.w3.org/2000/svg" p-id="1296" xmlns:xlink="http://www.w3.org/1999/xlink" width="200" height="200"><path d="M584.2432 606.464m-232.3968 0a232.3968 232.3968 0 1 0 464.7936 0 232.3968 232.3968 0 1 0-464.7936 0Z" fill="#C4F000" p-id="1297"></path><path d="M511.0784 88.0128a423.9872 423.9872 0 1 0 423.936 423.9872 424.448 424.448 0 0 0-423.936-423.9872z m0 766.0544a342.0672 342.0672 0 1 1 342.016-342.0672 342.4256 342.4256 0 0 1-342.016 342.0672z" fill="#333333" p-id="1298"></path><path d="M511.0272 664.7296A143.6672 143.6672 0 0 1 374.272 565.76l-77.824 25.6a225.8944 225.8944 0 0 0 428.288 2.7136l-77.5168-26.5728a143.872 143.872 0 0 1-136.192 97.2288z" fill="#333333" p-id="1299"></path></svg>