<?xml version="1.0" standalone="no"?><!DOCTYPE svg PUBLIC "-//W3C//DTD SVG 1.1//EN" "http://www.w3.org/Graphics/SVG/1.1/DTD/svg11.dtd"><svg t="1693470020155" class="icon" viewBox="0 0 1024 1024" version="1.1" xmlns="http://www.w3.org/2000/svg" p-id="1118" xmlns:xlink="http://www.w3.org/1999/xlink" width="200" height="200"><path d="M293.3248 446.0032L660.48 327.68a16.3328 16.3328 0 0 1 20.48 20.224l-112.64 376.832a16.3328 16.3328 0 0 1-31.3856 0l-53.4016-188.7232a16.384 16.384 0 0 0-11.4688-11.3152l-177.92-47.36a16.3328 16.3328 0 0 1-0.8192-31.3344z" fill="#FDA338" p-id="1119"></path><path d="M507.5968 56.0128A460.0832 460.0832 0 1 0 967.68 516.0448a460.8 460.8 0 0 0-460.0832-460.032z m0 858.6752A398.6432 398.6432 0 1 1 906.24 516.0448a399.0528 399.0528 0 0 1-398.6432 398.6432z" fill="#474A54" p-id="1120"></path><path d="M651.1616 298.24L283.904 416.768a47.0528 47.0528 0 0 0 2.3552 90.112l169.984 45.2608 51.712 180.5312a46.7968 46.7968 0 0 0 45.0048 34.0992 46.7456 46.7456 0 0 0 45.1072-33.6384l112.64-376.7808a47.0528 47.0528 0 0 0-59.5456-58.2656z m-348.16 176.9984z m250.88 193.3824L513.0752 527.36a47.1552 47.1552 0 0 0-33.1264-32.512l-130.7136-34.816 294.8096-95.1296z" fill="#474A54" p-id="1121"></path></svg>