<?xml version="1.0" standalone="no"?><!DOCTYPE svg PUBLIC "-//W3C//DTD SVG 1.1//EN" "http://www.w3.org/Graphics/SVG/1.1/DTD/svg11.dtd"><svg t="1693470211716" class="icon" viewBox="0 0 1024 1024" version="1.1" xmlns="http://www.w3.org/2000/svg" p-id="1147" xmlns:xlink="http://www.w3.org/1999/xlink" width="200" height="200"><path d="M588.6464 589.9776m-273.408 0a273.408 273.408 0 1 0 546.816 0 273.408 273.408 0 1 0-546.816 0Z" fill="#C4F000" p-id="1148"></path><path d="M958.6176 455.68l-175.5648-303.8208-97.536 56.32v-112.64H334.4896v112.64l-97.28-56.32L61.44 455.68l97.28 56.32-97.28 56.32 175.5648 304.0256 97.28-56.32v112.64h351.0272v-112.64l97.536 56.32L958.6176 568.32l-97.28-56.32z m-184.32 38.1952c0.4608 7.0144 0.6656 12.8 0.6656 18.1248s0 11.1104-0.6656 18.1248l-1.7408 25.6 73.9328 42.6496-93.5936 162.1504-73.8816-42.6496-21.0432 14.2848a259.2256 259.2256 0 0 1-31.4368 18.176l-22.9376 11.264v85.248H416.4096v-85.1456l-22.9376-11.264a259.2256 259.2256 0 0 1-31.4368-18.2784l-21.248-14.2848-73.8816 42.6496-93.5936-162.048 73.9328-42.6496-1.7408-25.6c-0.4608-7.0144-0.7168-12.8-0.7168-18.1248s0-11.1104 0.7168-18.1248l1.7408-25.6-73.9328-42.496 93.5936-162.0992 73.8816 42.6496 21.1968-14.2848a261.12 261.12 0 0 1 31.488-18.176l22.9376-11.264V177.4592h187.1872v85.248l22.9376 11.264a256.4096 256.4096 0 0 1 31.4368 18.176l21.248 14.2848 73.8816-42.6496 93.5936 162.0992-73.9328 42.7008z" fill="#333333" p-id="1149"></path><path d="M510.0032 327.68a184.32 184.32 0 1 0 184.32 184.32 184.7296 184.7296 0 0 0-184.32-184.32z m0 287.1296a102.4 102.4 0 1 1 102.4-102.4 102.7072 102.7072 0 0 1-102.4 102.4z" fill="#333333" p-id="1150"></path></svg>