<?xml version="1.0" standalone="no"?><!DOCTYPE svg PUBLIC "-//W3C//DTD SVG 1.1//EN" "http://www.w3.org/Graphics/SVG/1.1/DTD/svg11.dtd"><svg t="1693470009595" class="icon" viewBox="0 0 1024 1024" version="1.1" xmlns="http://www.w3.org/2000/svg" p-id="976" xmlns:xlink="http://www.w3.org/1999/xlink" width="200" height="200"><path d="M175.2064 415.3344h106.8544v489.6256H175.2064a75.2128 75.2128 0 0 1-75.2128-75.2128V490.5472a75.2128 75.2128 0 0 1 75.2128-75.2128z" fill="#FDA338" p-id="977"></path><path d="M949.9136 416.3584a110.1312 110.1312 0 0 0-88.6784-44.1856h-174.6944a6.3488 6.3488 0 0 1-5.5808-3.0208 5.12 5.12 0 0 1-0.4608-5.12c42.5984-92.16 24.832-165.3248 10.24-200.8064-17.2544-42.7008-46.6944-74.6496-80.7424-87.7568-37.0688-14.2336-71.0144-14.1312-100.864 0.4096-46.08 22.4768-80.5888 76.8-111.1552 175.7184-13.1584 42.5472-46.08 79.36-97.8432 109.568a82.8928 82.8928 0 0 1-41.3696 11.1616H181.76a111.104 111.104 0 0 0-111.0016 110.848v362.496a111.104 111.104 0 0 0 111.0016 111.0016h575.3344a111.616 111.616 0 0 0 106.7008-80.3328l104.1408-362.5472a110.1312 110.1312 0 0 0-18.0224-97.4336zM132.1984 845.6704v-362.496a49.6128 49.6128 0 0 1 49.5616-49.5616h73.2672v455.68a30.72 30.72 0 0 0 0.6144 6.144H181.76a49.6128 49.6128 0 0 1-49.5616-49.7664zM908.9024 496.64l-104.192 362.496a49.7152 49.7152 0 0 1-47.616 35.84H315.8528a30.72 30.72 0 0 0 0.6144-6.144V430.08a30.72 30.72 0 0 0-1.1264-8.0896 140.4928 140.4928 0 0 0 15.9744-7.936c65.536-38.1952 107.8272-86.784 125.6448-144.5376 24.32-78.08 50.8416-124.7232 79.3088-138.5472 9.0112-4.352 24.2176-8.96 51.968 1.6896 17.7152 6.8096 35.2768 27.2896 46.08 53.4528S657.7152 267.0592 624.64 337.92a66.56 66.56 0 0 0 4.4544 64.1536 67.584 67.584 0 0 0 57.2416 31.3856h174.6944A49.5616 49.5616 0 0 1 908.9024 496.64z" fill="#474A54" p-id="978"></path></svg>