<?xml version="1.0" standalone="no"?><!DOCTYPE svg PUBLIC "-//W3C//DTD SVG 1.1//EN" "http://www.w3.org/Graphics/SVG/1.1/DTD/svg11.dtd"><svg t="1693470310354" class="icon" viewBox="0 0 1024 1024" version="1.1" xmlns="http://www.w3.org/2000/svg" p-id="1557" xmlns:xlink="http://www.w3.org/1999/xlink" width="200" height="200"><path d="M751.76 387.76C751.76 255.34 644.42 148 512 148a239.74 239.74 0 0 0-168.24 410.55 131.3 131.3 0 0 1 35.87 63.56l12.64 54a38.68 38.68 0 0 0 44.17 29.32l177.47-30.27a38.66 38.66 0 0 0 31.49-30.92l4.47-23.58A131.64 131.64 0 0 1 684.72 554a238.91 238.91 0 0 0 67.04-166.24z" fill="#FFA227" p-id="1558"></path><path d="M400.579293 743.793262m27.131453-4.784007l183.873456-32.421851q27.131454-4.784007 31.915461 22.347446l0 0q4.784007 27.131454-22.347446 31.915461l-183.873456 32.421851q-27.131454 4.784007-31.915461-22.347446l0 0q-4.784007-27.131454 22.347446-31.915461Z" fill="#FFBE69" p-id="1559"></path><path d="M579.51 802.19a10.78 10.78 0 0 1 12.37 12.65C585 848.76 555.23 875 519.5 875a73.82 73.82 0 0 1-63.73-36.51 10.82 10.82 0 0 1 7.54-16.11c42.1-7.16 83.58-14.89 116.2-20.19z" fill="#FFBE69" p-id="1560"></path><path d="M668.74 361.9a22.5 22.5 0 0 1-21.59-16.21 130.12 130.12 0 0 0-45.84-66.62 127.89 127.89 0 0 0-78.15-26.33 22.5 22.5 0 1 1 0-45 172.55 172.55 0 0 1 105.41 35.53 175.37 175.37 0 0 1 61.78 89.84 22.51 22.51 0 0 1-21.61 28.79z" fill="#FFFFFF" p-id="1561"></path><path d="M677.69 414.69m-24.31 0a24.31 24.31 0 1 0 48.62 0 24.31 24.31 0 1 0-48.62 0Z" fill="#FFFFFF" p-id="1562"></path></svg>